{"asset":{"generator":"glTF-Transform v4.0.2","version":"2.0","extras":{"author":"Akshat (https://sketchfab.com/shooter24994)","license":"CC-BY-4.0 (http://creativecommons.org/licenses/by/4.0/)","source":"https://sketchfab.com/3d-models/saturn-8fb67d3defd74aaa880df3a08317e641","title":"Saturn"}},"accessors":[{"type":"VEC3","componentType":5126,"count":3223,"max":[0.999999463558197,0.9999982118606567,1],"min":[-0.9999986290931702,-0.999998927116394,-1],"bufferView":0,"byteOffset":0},{"type":"VEC3","componentType":5126,"count":3223,"bufferView":0,"byteOffset":12},{"type":"VEC2","componentType":5126,"count":3223,"bufferView":0,"byteOffset":24},{"type":"SCALAR","componentType":5125,"count":17664,"bufferView":1,"byteOffset":0},{"type":"SCALAR","componentType":5125,"count":3072,"bufferView":1,"byteOffset":70656},{"type":"VEC3","componentType":5126,"count":605,"max":[1.2027465105056763,1.2027463912963867,-0.00041665718890726566],"min":[-1.2027465105056763,-1.2027466297149658,-0.009583334438502789],"bufferView":2,"byteOffset":0},{"type":"VEC3","componentType":5126,"count":605,"bufferView":2,"byteOffset":12},{"type":"VEC2","componentType":5126,"count":605,"bufferView":2,"byteOffset":24}],"bufferViews":[{"buffer":0,"byteOffset":0,"byteLength":103136,"byteStride":32,"target":34962},{"buffer":0,"byteOffset":103136,"byteLength":82944,"target":34963},{"buffer":0,"byteOffset":186080,"byteLength":19360,"byteStride":32,"target":34962}],"samplers":[{"magFilter":9729,"minFilter":9987,"wrapS":10497,"wrapT":10497}],"textures":[{"source":0,"sampler":0},{"source":1,"sampler":0}],"images":[{"mimeType":"image/jpeg","uri":"textures/Material.002_diffuse.jpeg"},{"mimeType":"image/jpeg","uri":"textures/ring_diffuse.jpeg"}],"buffers":[{"uri":"scene.bin","byteLength":205440}],"materials":[{"name":"Material.002","doubleSided":true,"pbrMetallicRoughness":{"roughnessFactor":0.8040408205773457,"metallicFactor":0,"baseColorTexture":{"index":0}},"extensions":{"KHR_materials_ior":{"ior":1000},"KHR_materials_specular":{"specularColorFactor":[0,0,0]}}},{"name":"ring","doubleSided":true,"pbrMetallicRoughness":{"roughnessFactor":0.8040408205773457,"metallicFactor":0,"baseColorTexture":{"index":1}},"extensions":{"KHR_materials_ior":{"ior":1000},"KHR_materials_specular":{"specularColorFactor":[0,0,0]}}}],"meshes":[{"name":"Sphere_Material.002_0","primitives":[{"attributes":{"NORMAL":1,"POSITION":0,"TEXCOORD_0":2},"mode":4,"material":0,"indices":3}]},{"name":"Circle_ring_0","primitives":[{"attributes":{"NORMAL":6,"POSITION":5,"TEXCOORD_0":7},"mode":4,"material":1,"indices":4}]}],"nodes":[{"name":"Sketchfab_model","rotation":[-0.7071067811865475,0,0,0.7071067811865476],"children":[1]},{"name":"75b4819b09944adeaa76a788acb4b263.fbx","rotation":[0.7071067811865475,0,0,0.7071067811865476],"children":[2]},{"name":"RootNode","children":[3,5]},{"name":"Sphere","rotation":[-0.7071068387877038,0,0,0.7071067235853866],"scale":[100,100.00000000000001,100.00000000000001],"children":[4]},{"name":"Sphere_Material.002_0","mesh":0},{"name":"Circle","rotation":[-0.7021978291089974,0.08317554355494947,-0.08317552779205181,0.7021978847343984],"scale":[163.36088562011722,163.36090087890625,163.36088562011722],"children":[6]},{"name":"Circle_ring_0","mesh":1}],"scenes":[{"name":"Sketchfab_Scene","nodes":[0]}],"scene":0,"extensionsUsed":["KHR_materials_ior","KHR_materials_specular"]}